<svg xmlns="http://www.w3.org/2000/svg" width="484" height="240" viewBox="0 0 484 240">
  <g transform="translate(0, 0)">
  <rect width="240" height="240" fill="#3c2423"/>
  <rect x="8" y="8" width="224" height="224" rx="8" fill="#3e2d2d"/>
  <rect x="16" y="16" width="208" height="36" rx="6" fill="#413b3d"/>
  <text x="28" y="40" font-family="system-ui, sans-serif" font-size="12" font-weight="600" fill="#8cb6be">Material Sakura (dark)</text>
  <rect x="16" y="60" width="208" height="72" rx="6" fill="#5a3c3c"/>
  <text x="28" y="82" font-family="system-ui, sans-serif" font-size="11" fill="#8cb6be">Surface Text</text>
  <text x="28" y="98" font-family="system-ui, sans-serif" font-size="10" fill="#6f8186">Outline color</text>
  <rect x="28" y="108" width="72" height="18" rx="9" fill="#be736f"/>
  <text x="64" y="120" font-family="system-ui, sans-serif" font-size="9" text-anchor="middle" fill="#f7fff8">Primary</text>
  <rect x="108" y="108" width="48" height="18" rx="4" fill="#538790"/>
  <rect x="16" y="140" width="100" height="52" rx="6" fill="#413b3d"/>
  <rect x="24" y="148" width="84" height="36" rx="4" fill="#3c2423"/>
  <text x="66" y="170" font-family="system-ui, sans-serif" font-size="9" text-anchor="middle" fill="#8cb6be">Background</text>
  <rect x="124" y="140" width="100" height="52" rx="6" fill="#413b3d"/>
  <circle cx="148" cy="166" r="9" fill="#ffb4ab"/>
  <circle cx="172" cy="166" r="9" fill="#8d8695"/>
  <circle cx="196" cy="166" r="9" fill="#538790"/>
  <rect x="16" y="200" width="208" height="24" rx="4" fill="#be736f" opacity="0.15"/>
  <text x="120" y="216" font-family="system-ui, sans-serif" font-size="9" text-anchor="middle" fill="#8cb6be">Surface Tint Overlay</text>
</g>
  <rect x="240" y="0" width="4" height="240" fill="#888"/>
  <g transform="translate(244, 0)">
  <rect width="240" height="240" fill="#e4cdcc"/>
  <rect x="8" y="8" width="224" height="224" rx="8" fill="#e9d5d4"/>
  <rect x="16" y="16" width="208" height="36" rx="6" fill="#d8cdce"/>
  <text x="28" y="40" font-family="system-ui, sans-serif" font-size="12" font-weight="600" fill="#533231">Material Sakura (light)</text>
  <rect x="16" y="60" width="208" height="72" rx="6" fill="#e2c5c4"/>
  <text x="28" y="82" font-family="system-ui, sans-serif" font-size="11" fill="#533231">Surface Text</text>
  <text x="28" y="98" font-family="system-ui, sans-serif" font-size="10" fill="#876a69">Outline color</text>
  <rect x="28" y="108" width="72" height="18" rx="9" fill="#ca8c89"/>
  <text x="64" y="120" font-family="system-ui, sans-serif" font-size="9" text-anchor="middle" fill="#101410">Primary</text>
  <rect x="108" y="108" width="48" height="18" rx="4" fill="#80a6ad"/>
  <rect x="16" y="140" width="100" height="52" rx="6" fill="#d8cdce"/>
  <rect x="24" y="148" width="84" height="36" rx="4" fill="#e4cdcc"/>
  <text x="66" y="170" font-family="system-ui, sans-serif" font-size="9" text-anchor="middle" fill="#533231">Background</text>
  <rect x="124" y="140" width="100" height="52" rx="6" fill="#d8cdce"/>
  <circle cx="148" cy="166" r="9" fill="#ba1a1a"/>
  <circle cx="172" cy="166" r="9" fill="#ada8b3"/>
  <circle cx="196" cy="166" r="9" fill="#80a6ad"/>
  <rect x="16" y="200" width="208" height="24" rx="4" fill="#ca8c89" opacity="0.15"/>
  <text x="120" y="216" font-family="system-ui, sans-serif" font-size="9" text-anchor="middle" fill="#533231">Surface Tint Overlay</text>
</g>
</svg>