<svg xmlns="http://www.w3.org/2000/svg" width="484" height="240" viewBox="0 0 484 240">
  <g transform="translate(0, 0)">
  <rect width="240" height="240" fill="#222729"/>
  <rect x="8" y="8" width="224" height="224" rx="8" fill="#2e3139"/>
  <rect x="16" y="16" width="208" height="36" rx="6" fill="#414252"/>
  <text x="28" y="40" font-family="system-ui, sans-serif" font-size="12" font-weight="600" fill="#cbc5f5">AncientAliens (dark)</text>
  <rect x="16" y="60" width="208" height="72" rx="6" fill="#444f5a"/>
  <text x="28" y="82" font-family="system-ui, sans-serif" font-size="11" fill="#cbc5f5">Surface Text</text>
  <text x="28" y="98" font-family="system-ui, sans-serif" font-size="10" fill="#8e8cac">Outline color</text>
  <rect x="28" y="108" width="72" height="18" rx="9" fill="#94b9d0"/>
  <text x="64" y="120" font-family="system-ui, sans-serif" font-size="9" text-anchor="middle" fill="#101410">Primary</text>
  <rect x="108" y="108" width="48" height="18" rx="4" fill="#a29ad8"/>
  <rect x="16" y="140" width="100" height="52" rx="6" fill="#414252"/>
  <rect x="24" y="148" width="84" height="36" rx="4" fill="#222729"/>
  <text x="66" y="170" font-family="system-ui, sans-serif" font-size="9" text-anchor="middle" fill="#cbc5f5">Background</text>
  <rect x="124" y="140" width="100" height="52" rx="6" fill="#414252"/>
  <circle cx="148" cy="166" r="9" fill="#ffb4ab"/>
  <circle cx="172" cy="166" r="9" fill="#9ad8b8"/>
  <circle cx="196" cy="166" r="9" fill="#a29ad8"/>
  <rect x="16" y="200" width="208" height="24" rx="4" fill="#94b9d0" opacity="0.15"/>
  <text x="120" y="216" font-family="system-ui, sans-serif" font-size="9" text-anchor="middle" fill="#cbc5f5">Surface Tint Overlay</text>
</g>
  <rect x="240" y="0" width="4" height="240" fill="#888"/>
  <g transform="translate(244, 0)">
  <rect width="240" height="240" fill="#d9e5ee"/>
  <rect x="8" y="8" width="224" height="224" rx="8" fill="#deeaf0"/>
  <rect x="16" y="16" width="208" height="36" rx="6" fill="#d8e1ee"/>
  <text x="28" y="40" font-family="system-ui, sans-serif" font-size="12" font-weight="600" fill="#374147">AncientAliens (light)</text>
  <rect x="16" y="60" width="208" height="72" rx="6" fill="#d2e2eb"/>
  <text x="28" y="82" font-family="system-ui, sans-serif" font-size="11" fill="#374147">Surface Text</text>
  <text x="28" y="98" font-family="system-ui, sans-serif" font-size="10" fill="#717c83">Outline color</text>
  <rect x="28" y="108" width="72" height="18" rx="9" fill="#a7c6d8"/>
  <text x="64" y="120" font-family="system-ui, sans-serif" font-size="9" text-anchor="middle" fill="#101410">Primary</text>
  <rect x="108" y="108" width="48" height="18" rx="4" fill="#bab4e2"/>
  <rect x="16" y="140" width="100" height="52" rx="6" fill="#d8e1ee"/>
  <rect x="24" y="148" width="84" height="36" rx="4" fill="#d9e5ee"/>
  <text x="66" y="170" font-family="system-ui, sans-serif" font-size="9" text-anchor="middle" fill="#374147">Background</text>
  <rect x="124" y="140" width="100" height="52" rx="6" fill="#d8e1ee"/>
  <circle cx="148" cy="166" r="9" fill="#ba1a1a"/>
  <circle cx="172" cy="166" r="9" fill="#b6e3cc"/>
  <circle cx="196" cy="166" r="9" fill="#bab4e2"/>
  <rect x="16" y="200" width="208" height="24" rx="4" fill="#a7c6d8" opacity="0.15"/>
  <text x="120" y="216" font-family="system-ui, sans-serif" font-size="9" text-anchor="middle" fill="#374147">Surface Tint Overlay</text>
</g>
</svg>