<svg xmlns="http://www.w3.org/2000/svg" width="484" height="240" viewBox="0 0 484 240">
  <g transform="translate(0, 0)">
  <rect width="240" height="240" fill="#282828"/>
  <rect x="8" y="8" width="224" height="224" rx="8" fill="#363636"/>
  <rect x="16" y="16" width="208" height="36" rx="6" fill="#4c4c4c"/>
  <text x="28" y="40" font-family="system-ui, sans-serif" font-size="12" font-weight="600" fill="#e3e3e3">1-Bit (dark)</text>
  <rect x="16" y="60" width="208" height="72" rx="6" fill="#535353"/>
  <text x="28" y="82" font-family="system-ui, sans-serif" font-size="11" fill="#e3e3e3">Surface Text</text>
  <text x="28" y="98" font-family="system-ui, sans-serif" font-size="10" fill="#a0a0a0">Outline color</text>
  <rect x="28" y="108" width="72" height="18" rx="9" fill="#bababa"/>
  <text x="64" y="120" font-family="system-ui, sans-serif" font-size="9" text-anchor="middle" fill="#101410">Primary</text>
  <rect x="108" y="108" width="48" height="18" rx="4" fill="#c1c1c1"/>
  <rect x="16" y="140" width="100" height="52" rx="6" fill="#4c4c4c"/>
  <rect x="24" y="148" width="84" height="36" rx="4" fill="#282828"/>
  <text x="66" y="170" font-family="system-ui, sans-serif" font-size="9" text-anchor="middle" fill="#e3e3e3">Background</text>
  <rect x="124" y="140" width="100" height="52" rx="6" fill="#4c4c4c"/>
  <circle cx="148" cy="166" r="9" fill="#ffb4ab"/>
  <circle cx="172" cy="166" r="9" fill="#c1c1c1"/>
  <circle cx="196" cy="166" r="9" fill="#c1c1c1"/>
  <rect x="16" y="200" width="208" height="24" rx="4" fill="#bababa" opacity="0.15"/>
  <text x="120" y="216" font-family="system-ui, sans-serif" font-size="9" text-anchor="middle" fill="#e3e3e3">Surface Tint Overlay</text>
</g>
  <rect x="240" y="0" width="4" height="240" fill="#888"/>
  <g transform="translate(244, 0)">
  <rect width="240" height="240" fill="#e7e7e7"/>
  <rect x="8" y="8" width="224" height="224" rx="8" fill="#eaeaea"/>
  <rect x="16" y="16" width="208" height="36" rx="6" fill="#e6e6e6"/>
  <text x="28" y="40" font-family="system-ui, sans-serif" font-size="12" font-weight="600" fill="#424242">1-Bit (light)</text>
  <rect x="16" y="60" width="208" height="72" rx="6" fill="#e2e2e2"/>
  <text x="28" y="82" font-family="system-ui, sans-serif" font-size="11" fill="#424242">Surface Text</text>
  <text x="28" y="98" font-family="system-ui, sans-serif" font-size="10" fill="#7d7d7d">Outline color</text>
  <rect x="28" y="108" width="72" height="18" rx="9" fill="#c6c6c6"/>
  <text x="64" y="120" font-family="system-ui, sans-serif" font-size="9" text-anchor="middle" fill="#101410">Primary</text>
  <rect x="108" y="108" width="48" height="18" rx="4" fill="#d1d1d1"/>
  <rect x="16" y="140" width="100" height="52" rx="6" fill="#e6e6e6"/>
  <rect x="24" y="148" width="84" height="36" rx="4" fill="#e7e7e7"/>
  <text x="66" y="170" font-family="system-ui, sans-serif" font-size="9" text-anchor="middle" fill="#424242">Background</text>
  <rect x="124" y="140" width="100" height="52" rx="6" fill="#e6e6e6"/>
  <circle cx="148" cy="166" r="9" fill="#ba1a1a"/>
  <circle cx="172" cy="166" r="9" fill="#d2d2d2"/>
  <circle cx="196" cy="166" r="9" fill="#d1d1d1"/>
  <rect x="16" y="200" width="208" height="24" rx="4" fill="#c6c6c6" opacity="0.15"/>
  <text x="120" y="216" font-family="system-ui, sans-serif" font-size="9" text-anchor="middle" fill="#424242">Surface Tint Overlay</text>
</g>
</svg>